<svg width="36" height="36" viewBox="0 0 36 36" fill="none" xmlns="http://www.w3.org/2000/svg">
<path d="M29.811 29.2993L21.2949 15.9157L29.6981 6.67177C29.8882 6.45754 29.9861 6.17704 29.9707 5.89107C29.9553 5.60511 29.8279 5.33673 29.6159 5.14412C29.404 4.95152 29.1247 4.85021 28.8385 4.86217C28.5524 4.87412 28.2825 4.99837 28.0874 5.20799L20.0828 14.0125L14.5746 5.35627C14.4763 5.20167 14.3407 5.07436 14.1802 4.98613C14.0197 4.8979 13.8395 4.85162 13.6563 4.85156H7.12639C6.93126 4.85147 6.73969 4.90384 6.57174 5.00319C6.40379 5.10255 6.26565 5.24523 6.17177 5.41629C6.07789 5.58736 6.03173 5.78052 6.03813 5.97555C6.04452 6.17058 6.10324 6.3603 6.20812 6.52485L14.7242 19.9071L6.32104 29.1578C6.22291 29.2632 6.14667 29.387 6.09676 29.5221C6.04684 29.6572 6.02423 29.8009 6.03025 29.9448C6.03626 30.0887 6.07077 30.2299 6.13178 30.3604C6.19279 30.4908 6.27909 30.6079 6.38567 30.7047C6.49225 30.8016 6.617 30.8763 6.75267 30.9246C6.88835 30.9729 7.03227 30.9938 7.17608 30.9861C7.31989 30.9783 7.46073 30.9421 7.59045 30.8796C7.72017 30.817 7.83617 30.7293 7.93175 30.6216L15.9363 21.8171L21.4446 30.4733C21.5436 30.6266 21.6796 30.7526 21.8401 30.8396C22.0005 30.9266 22.1803 30.9719 22.3628 30.9712H28.8928C29.0877 30.9711 29.279 30.9187 29.4467 30.8194C29.6145 30.7202 29.7525 30.5776 29.8463 30.4068C29.9402 30.2359 29.9864 30.043 29.9802 29.8482C29.974 29.6534 29.9155 29.4638 29.811 29.2993ZM22.9601 28.7946L9.10849 7.0282H13.0536L26.9107 28.7946H22.9601Z" fill="#FF773A"/>
</svg>
